<svg width="949.983" height="243.045" xmlns="http://www.w3.org/2000/svg"><path style="fill:#FFFFFF;fill-opacity:1" d="M129.991 337.441c-8.475-2.093-30.83-10.861-41.793-16.392-21.8-10.998-34.21-22.565-48.216-44.945-4.399-7.03-11.274-25.704-12.519-34.004-.384-2.564-1.098-4.661-1.585-4.661-1.13 0-1.173-39.277-.045-40.55.463-.523 1.386-3.494 2.05-6.603 5.99-28.023 22.173-53.348 45.202-70.737 10.295-7.773 18.17-12.164 28.906-16.12 15.619-5.755 22.8-6.976 41.09-6.983 18.827-.008 22.024.601 45.91 8.752 24.776 8.454 37.634 16.034 51.562 30.396 10.266 10.587 11.63 12.4 17.182 22.845 10.174 19.142 14.635 36.895 14.573 58-.057 19.641-3.097 32.866-12.527 54.5-8.947 20.526-27.686 40.84-50.4 54.64-7.362 4.472-19.394 9.108-30.89 11.902-11.062 2.688-37.544 2.666-48.5-.04zm45.737-11.991c10.492-2.515 18.353-5.837 30.263-12.788 13.266-7.743 28.406-22.911 36.463-36.532 6.403-10.825 13.028-26.72 14.042-33.691.36-2.475 1.069-6.7 1.575-9.387 1.212-6.431 1.18-27.802-.053-34.68a930.736 930.736 0 0 1-1.516-8.698c-1.467-8.802-9.666-27.235-12.115-27.235-1.65 0-1.421 1.428 1.285 8 5.876 14.266 8.683 38.308 6.435 55.105-2.649 19.793-12.115 42.7-24.208 58.582-13.648 17.924-34.654 32.91-56.408 40.239-10.24 3.45-8.01 4.021 4.237 1.085zm-18.143-3.442c28.714-6.11 53.31-22.835 69.849-47.5 19.09-28.468 24.549-66.62 13.927-97.332-1.377-3.98-2.676-8.042-2.886-9.025-.682-3.18-7.764-15.52-12.89-22.456-2.747-3.716-8.01-9.681-11.698-13.256-5.494-5.328-8.208-7.093-15.05-9.785-11.426-4.498-20.407-6.177-33.138-6.198-12.801-.02-22.887 1.877-35.208 6.626-12.342 4.757-19.432 8.928-30.08 17.698-9.339 7.692-20.08 20.697-26.15 31.659-4.547 8.214-11.091 27.943-12.89 38.862-6.28 38.122 10.8 80.228 40.479 99.793 9.391 6.19 20.883 11.872 25.641 12.675 4.988.842 22.741-.197 30.094-1.761zm-14.387-18.809c.242-5.96.603-7.298 2.043-7.573 1.455-.278 1.75.417 1.75 4.114 0 6.5-1.047 10.699-2.668 10.699-1.122 0-1.358-1.517-1.125-7.24zm-35.176-2.04c-1.359-.687-3.159-2.506-4-4.041-1.381-2.52-1.376-2.909.054-3.986.871-.656 1.885-2.4 2.252-3.877 1.133-4.551 5.717-4.565 10.913-.033.963.84 1.75 2.634 1.75 3.988 0 1.986-.394 2.359-2.04 1.928-1.675-.438-1.928-.176-1.41 1.455.39 1.229-.036 2.726-1.114 3.917-2.035 2.248-3.044 2.35-6.405.65zm69.362-5.368c-2.5-5.65-2.18-8.252.867-7.083 1.769.679 5.116 9.31 4.367 11.262-1.07 2.787-2.745 1.45-5.234-4.179zm-44.946-20.44c-.37-.597-.171-1.587.44-2.2 3.2-3.2-.809-10.232-6.434-11.287-4.092-.768-8.045 1.372-9.472 5.127-.565 1.485-1.728 2.448-2.956 2.448-1.597 0-2.025-.654-2.025-3.096 0-6.005 6.842-11.904 13.806-11.904 2.616 0 3.42-.743 6.23-5.75 1.776-3.163 4.8-8.132 6.721-11.042 4.154-6.293 4.319-8.535.986-13.446-8.504-12.53.76-28.724 16.452-28.757 4.221-.009 7.13-3.527 14.395-17.417 5.856-11.195 6.465-12.836 4.582-12.343-3.29.86-2.69-1.613 1.094-4.498 1.795-1.37 5.154-5.184 7.463-8.475l4.198-5.985-2.449-1.115-2.448-1.116 3.635-6.278c2-3.453 3.793-6.467 3.987-6.696.193-.23 1.476.183 2.85.918 1.924 1.03 2.514 2.161 2.566 4.919.063 3.306.151 3.408 1.153 1.33 1.863-3.861 6.52-2.2 5.259 1.876-.991 3.203-5.494 10.875-6.383 10.875-1.193 0-3.84-2.412-4.282-3.9-.437-1.477-5.172 13.75-6.265 20.15-.71 4.16-1.255 4.535-3.04 2.094-1.037-1.419-2.107.051-7.457 10.25-8.443 16.092-8.659 18.589-2.703 31.27 1.672 3.56 1.158 9.98-1.036 12.917-3.558 4.766-6.764 6.39-14.238 7.21-4.531.498-7.89 1.435-9.116 2.545-2.097 1.898-12.96 19.953-12.96 21.541 0 .531 1.187 2.758 2.637 4.95 3.168 4.787 3.544 11.01.845 13.993-1.958 2.163-4.974 2.61-6.035.893zm19.971-49.162c-.286-.688-1.957-2.158-3.713-3.268-6.488-4.097-7.261-12.08-1.708-17.633 3.53-3.53 9.391-3.906 13.276-.85 1.399 1.1 3.372 1.987 4.385 1.971 1.48-.023 1.202-.612-1.423-3-2.767-2.517-4.083-2.97-8.615-2.97-6.228 0-10.045 2.38-12.24 7.635-2.871 6.87-.895 13.86 4.919 17.405 3.658 2.23 5.88 2.539 5.12.71zm14.393-2.048c4.157-4.425 3.78-11.745-.677-13.16-4.35-1.38-10.134 3.862-10.134 9.186 0 5.758 6.79 8.254 10.81 3.974zm-19.148-10.952c-.278-.688-.505-.125-.505 1.25s.227 1.937.505 1.25c.277-.688.277-1.813 0-2.5zm4.86-5.186c1.638-.853 2.29-1.555 1.45-1.558-2.06-.008-5.976 2.819-5.957 4.3.012.923.187.924.773.002.416-.655 2.097-1.89 3.734-2.743zm53.768 65.17c-2.315-1.78-4.078-3.684-3.917-4.234.636-2.176 3.789-1.479 7.592 1.68 7.177 5.959 3.806 8.3-3.675 2.554zm-127.623-.16c-.658-1.713 9.712-10.076 11.287-9.102 1.985 1.226 1.022 3.04-3.596 6.778-4.972 4.023-6.825 4.583-7.691 2.325zm87.332-20.549c0-1.747-5.7-3.975-11.663-4.559-10.893-1.067-12.482-1.478-12.149-3.147.254-1.27 2.01-1.59 9.312-1.693 10.353-.145 15.728-2.187 21.834-8.293 5.274-5.274 7.742-11.06 8.132-19.061.383-7.88-1.017-12.763-5.472-19.084-4.728-6.708-3.542-8.425 2.317-3.353 3.812 3.3 5.594 4.165 8.584 4.165 5.152 0 5.526.756 2.229 4.512-4.504 5.13-5.019 16.294-.975 21.166.677.817 3.846 2.805 7.042 4.418 3.489 1.761 5.81 3.58 5.81 4.556 0 1.668-2.997 1.606-14.319-.295-3.684-.619-4.046-.408-10.25 5.95-6 6.15-6.432 6.897-6.432 11.142 0 3.884-.293 4.55-2 4.55-1.1 0-2-.438-2-.974zm63.75-5.715c-.962-.251-1.75-.874-1.75-1.384 0-.51-.958-.926-2.13-.926-1.891 0-2.07-.422-1.595-3.75l.536-3.75-1.408 3.25c-1.487 3.432-2.065 3.75-4.272 2.352-1.145-.726-1.087-1.717.354-6.056.948-2.854 2.261-5.395 2.918-5.647 1.517-.582 14.098 4.1 14.096 5.246-.003 1.551-3.882 11.357-4.446 11.239a77.718 77.718 0 0 1-2.303-.574zm.632-6.862c.342-.89.174-1.292-.393-.941-.544.336-.989 1.034-.989 1.552 0 1.438.717 1.121 1.382-.611zm-160.136-.603c-1.617-1.617.254-3.845 3.228-3.845 1.225 0 3.694-.511 5.485-1.136 2.584-.9 3.427-.859 4.083.203 1.204 1.949.496 2.56-4.396 3.792-2.413.607-5.021 1.348-5.795 1.645-.774.296-1.946 0-2.605-.659zm58.313-2.1c-1.98-1.474-4.405-2.2-7.417-2.218-5.378-.033-6.076-1.345-2.958-5.561 1.918-2.595 2.316-4.374 2.316-10.344 0-9.052-1.436-11.406-9.645-15.807-3.402-1.823-6.106-3.765-6.008-4.315.11-.615 3.94-.865 9.946-.65l9.767.352 6.72-7.782c5.328-6.17 6.72-8.458 6.72-11.042 0-4.445 1.257-4.874 5.012-1.715 2.681 2.256 4.543 2.796 11.835 3.436 4.76.417 8.799.79 8.977.83.178.039.171.858-.014 1.82-.29 1.502-1.292 1.702-7.046 1.411-12.074-.611-22.23 4.974-28.53 15.689-2.476 4.212-2.728 5.546-2.677 14.15.06 10.101 1.742 15.25 6.337 19.406 2.33 2.107 2.8 4.612.856 4.563-.687-.017-2.573-1.018-4.191-2.223zm101.16-30.36c-1.857-1.857-.213-3.267 5.478-4.7 3.408-.858 6.558-1.337 7-1.064 1.59.983.758 3.445-1.447 4.278-3.63 1.372-10.254 2.263-11.032 1.485zm-153.032-4.128c-6.358-.328-6.792-.498-6.5-2.548.22-1.542 1.207-2.364 3.313-2.758 2.91-.544 2.93-.585.66-1.353-1.786-.603-2.205-1.302-1.765-2.945.318-1.184.584-2.49.592-2.903.007-.413 1.251-.78 2.763-.818 2.73-.067 2.734-.076.46-1.171-1.355-.652-2.07-1.68-1.75-2.514.297-.776.54-1.824.54-2.33 0-1.77 2.911-.885 8.98 2.73 4.133 2.462 5.943 4.113 5.571 5.081-.303.79-.55 1.848-.55 2.353 0 .505-1.688.933-3.75.95-3.471.03-3.61.139-1.859 1.464 1.04.788 2.35 1.585 2.908 1.771 1.44.48-.06 5.778-1.569 5.538-.677-.108-4.297-.354-8.044-.547zm136.717-30.414c-.859-1.389 7.763-9.843 10.038-9.843 2.763 0 1.666 2.826-2.692 6.939-4.426 4.177-6.14 4.855-7.346 2.904zM97.226 167.66c-4.631-4.04-5.401-6.22-2.196-6.22 2.632 0 10.517 7.292 9.56 8.841-1.176 1.902-2.868 1.3-7.364-2.621zm30.198-19.682c-2.354-3.593-3.137-10.538-1.187-10.538 1.764 0 6.156 9.51 5.356 11.597-.805 2.096-2.36 1.7-4.169-1.06zm33.083-5.514c-1.182-1.91.583-14.024 2.042-14.024 2.055 0 2.26 1.025 1.577 7.92-.596 6.029-2.1 8.564-3.62 6.104zM49.04 246.313c-2.473-15.239-.215-44.57 4.494-58.374 12.281-36.008 40.476-65.013 76.456-78.654 7.667-2.907 7.114-2.988-5.651-.833-24.683 4.168-53.412 22.973-68.05 44.544-4.914 7.24-12.276 22.435-15.235 31.443-5.51 16.774-6.51 41.512-2.326 57.5 1.735 6.628 2.066 7.118 6.229 9.235 2.418 1.229 4.559 2.073 4.757 1.874.198-.198-.105-3.228-.674-6.735zm198.95-95.252c0-.208-.787-.995-1.75-1.75-1.586-1.244-1.621-1.208-.377.378 1.306 1.665 2.127 2.195 2.127 1.372zm-3-4c0-.208-.787-.995-1.75-1.75-1.586-1.244-1.621-1.208-.377.378 1.306 1.665 2.127 2.195 2.127 1.372zm-8.075-9.223c-1.334-1.43-4.675-4.42-7.425-6.644-3.424-2.77-2.794-1.965 2 2.554 7.21 6.796 9.692 8.667 5.425 4.09zm-20.925-15.864c0-.256-1.012-.956-2.25-1.555-2.16-1.047-2.172-1.029-.308.465 2.04 1.634 2.558 1.855 2.558 1.09zm-7.5-4.535c-.34-.55-1.154-.993-1.809-.985-.715.009-.592.402.31.985 1.92 1.241 2.267 1.241 1.5 0zm-5.5-2.5c-1.375-.786-2.95-1.43-3.5-1.43-.55 0 .125.644 1.5 1.43 1.375.786 2.95 1.429 3.5 1.429.55 0-.125-.643-1.5-1.43zm667.887 221.75c-4.541-11.735-4.99-33.76-.948-46.5 2.009-6.33 2.326-6.75 5.102-6.75 3.443 0 3.48.238 1.336 8.355-2.222 8.407-2.214 31.79.013 40.289 2.044 7.8 2.13 7.356-1.414 7.356-2.375 0-3.254-.591-4.09-2.75zm91.113 1.144c0-.883.744-4.37 1.653-7.75 2.249-8.364 2.258-27.818.018-36.956-2.25-9.177-2.19-9.688 1.147-9.688 2.536 0 2.99.545 4.54 5.465 4.385 13.91 4.447 31.221.164 45.285-1.46 4.791-1.858 5.25-4.56 5.25-2.052 0-2.962-.493-2.962-1.606zm-654.75-8.057c-.737-.297-1.25-2.33-1.25-4.959 0-4.262.119-4.442 2.75-4.166l2.75.288.275-16.75.274-16.75H318.99v18.05c0 18.762-.769 22.88-4.544 24.328-1.862.715-5.383.695-7.206-.04zm13.919-.212c-1.068-.677-.276-4.883 4-21.235l5.331-20.39 4.206-.306 4.206-.305 1.517 5.305c9.562 33.446 10.2 37.806 5.53 37.806-3.66 0-4.87-1.223-5.524-5.589l-.662-4.411h-5.553c-3.054 0-5.298.255-4.985.567.829.829-1.26 7.806-2.596 8.667-1.513.977-3.83.93-5.47-.11zm15.436-19.713c-.335-.873-.899-3.4-1.253-5.614-.747-4.67-1.85-3.508-2.816 2.963-.608 4.08-.532 4.239 2.023 4.239 2.015 0 2.508-.383 2.046-1.588zm17.645 19.925c-.93-.375-1.25-4.823-1.25-17.42v-16.917h-8v-8h24v8h-8v16.893c0 14.481-.225 16.98-1.581 17.5-1.8.69-3.36.674-5.169-.056zm16.796-1.252c-.706-1.32-.993-8.809-.817-21.31l.271-19.275 3.75-.31 3.75-.311v16.12l4.75.003 4.75.002v-15.504l3.77-.311 3.77-.312-.27 21.312-.27 21.31-2.443.346c-3.738.527-5.057-2.221-5.057-10.536v-7.31h-8.922l-.289 8.75c-.286 8.666-.314 8.754-2.971 9.06-1.881.218-3.008-.298-3.772-1.724zm30.055.536c-.795-.958-1.06-7.437-.872-21.25l.271-19.871h7l.272 20.428c.281 21.196.136 22.018-3.9 22.056-.894.008-2.141-.605-2.77-1.363zm12.566.712c-.367-.367-.667-10.069-.667-21.56v-20.894l3.75.31 3.75.31v15.47l3.685-7.985c3.599-7.797 3.769-7.984 7.25-7.984 4.781 0 4.682 1.853-.598 11.16-2.29 4.037-4.149 7.79-4.132 8.34.018.55 2.057 5.121 4.533 10.158l4.5 9.159 3.6-14.159c1.979-7.787 3.871-15.733 4.205-17.658 1.195-6.895 1.285-7 5.966-7 2.405 0 4.62.397 4.92.883 1.483 2.4 8.504 31.318 8.768 36.117.28 5.086.13 5.524-2.002 5.826-3.228.458-4.93-1.297-5.704-5.884l-.666-3.942h-5.412c-2.977 0-5.36.337-5.294.75.065.412.065 1.955 0 3.428-.193 4.367-2.287 5.596-9.282 5.451-6.96-.144-6.22.556-11.214-10.63l-2.456-5.5-.083 7.05c-.048 4.041-.596 7.563-1.283 8.25-1.294 1.294-5.047 1.62-6.134.534zm38.333-19.257c0-.508-.543-3.28-1.208-6.158l-1.208-5.234-1.272 4.908c-1.76 6.785-1.66 7.408 1.188 7.408 1.375 0 2.5-.416 2.5-.924zm23.246 18.77c-.685-.686-1.246-2.992-1.246-5.126 0-3.783.074-3.863 2.976-3.226l2.975.654.275-16.824.274-16.824h7v18.179c0 16.904-.147 18.377-2.099 21-2.329 3.13-7.985 4.336-10.155 2.166zm14.087-.423c-.333-.867 1.285-8.855 3.595-17.75l5.175-19.923c.92-3.543 1.195-3.75 4.957-3.75 3.181 0 4.176.453 4.938 2.25 1.369 3.225 10.002 36.07 10.002 38.052 0 1.8-4.06 3.272-6.473 2.346-.812-.311-1.992-2.61-2.62-5.107l-1.144-4.541h-4.77c-4.72 0-4.777.038-5.47 3.75-.386 2.062-1.166 4.312-1.734 5-1.462 1.769-5.735 1.552-6.456-.327zm16.185-18.673c-.23-.688-.961-3.275-1.624-5.75-1.108-4.138-1.265-4.3-1.95-2-.41 1.375-.789 3.962-.844 5.75-.086 2.816.23 3.25 2.37 3.25 1.53 0 2.309-.475 2.048-1.25zm14.518 18.315c-1.523-2.844-1.376-38.325.164-39.865 1.68-1.68 7.36-1.498 9.151.293.822.822 2.991 5.434 4.822 10.25l3.327 8.757.5-10 .5-10h7l.271 20.203c.264 19.68.216 20.234-1.843 21.336-4.736 2.534-6.348.782-11.756-12.775l-5.092-12.764-.04 12.643c-.033 10.582-.297 12.742-1.621 13.25-2.747 1.054-4.316.667-5.383-1.328zm28.423.867c-.363-.587.984-7.9 2.992-16.25l4.855-20.182 1.203-5 4.746-.305c2.61-.168 4.745-.08 4.745.195s1.816 7.163 4.034 15.305c2.22 8.143 4.305 17.65 4.635 21.128l.602 6.324-3.358-.324c-3.068-.295-3.473-.733-4.693-5.073l-1.336-4.75h-4.83c-4.791 0-4.837.03-5.532 3.75-.385 2.062-1.165 4.312-1.733 5-1.263 1.528-5.425 1.648-6.33.182zm15.014-23.036c-1.73-6.56-2.072-6.803-2.837-2.017-.347 2.17-.905 4.66-1.24 5.533-.474 1.234.063 1.588 2.407 1.588h3.016zm27.756 23.266c-.975-.619-1.208-5.56-1-21.234l.271-20.428 5.911-.305c3.251-.168 7.21.233 8.797.89 5.291 2.192 7.6 10.889 4.186 15.764-1.513 2.159-1.469 2.442.75 4.805 1.872 1.995 2.346 3.583 2.307 7.724-.059 6.306-2.346 9.884-7.72 12.08-4.031 1.648-11.41 2.032-13.502.704zm12.76-10.142c.583-1.089.775-3.114.427-4.5-.52-2.074-1.233-2.52-4.024-2.52-3.353 0-3.392.05-3.392 4.5 0 4.321.118 4.5 2.965 4.5 1.931 0 3.334-.69 4.025-1.98zm-2.189-16.22c1.902-1.902 1.458-6.592-.734-7.765-3.414-1.827-4.066-1.192-4.066 3.965 0 4.148.307 5 1.8 5 .99 0 2.34-.54 3-1.2zm11.311 25.833c-.977-1.178-.3-4.976 3.429-19.23 6.198-23.692 5.602-22.403 10.358-22.403 3.577 0 4.043.304 4.968 3.25 2.422 7.713 9.134 34.626 9.134 36.624 0 2.572-2.03 3.586-5.458 2.725-1.854-.465-2.636-1.53-3.2-4.357-.41-2.058-.647-4.104-.526-4.545.12-.442-2.131-.667-5.005-.5l-5.224.303-1.085 4.5c-.9 3.725-1.524 4.551-3.63 4.8-1.398.166-3.09-.36-3.76-1.167zm15.082-23.883-1.584-6.25-.8 4c-.44 2.2-1.035 5.012-1.323 6.25-.45 1.937-.12 2.25 2.384 2.25h2.907zm17.057 24.597c-.943-.388-1.25-5.65-1.25-21.494v-20.98l3.25.313 3.25.314.275 16.75.274 16.75h4.976c3.276 0 5 .427 5.046 1.25.102 1.798 5.754-18.984 6.46-23.75.325-2.2 1.085-5.688 1.689-7.75 1.051-3.594 1.28-3.75 5.464-3.75 5.16 0 4.91-.455 9.311 16.978 5.32 21.075 5.685 25.354 2.2 25.848-3.228.458-4.93-1.297-5.704-5.884l-.666-3.942H668.99v3.428c0 5.48-1.571 6.268-12.674 6.355-5.404.043-10.388-.153-11.076-.436zm30.895-23.962-1.583-6.615-1.261 4.865c-1.748 6.739-1.665 7.177 1.45 7.648 1.512.23 2.8.484 2.863.567.063.082-.599-2.827-1.469-6.465zm19.943 23.69c-1.229-.778-8.877-34.91-9.036-40.325-.04-1.378.782-1.75 3.866-1.75 3.865 0 3.93.063 4.922 4.75.554 2.612 1.57 8.473 2.26 13.023.69 4.55 1.556 7.925 1.925 7.5.37-.425 1.235-4.148 1.923-8.273.69-4.125 1.7-9.662 2.247-12.305.987-4.766 1.024-4.802 4.65-4.5l3.655.305 2.59 14 2.59 14 1.27-7.5c3.722-22.01 3.217-20.467 6.808-20.814 3.924-.379 3.9-.645 1.311 14.22-1.062 6.102-2.454 14.367-3.095 18.367-.64 4-1.828 7.938-2.64 8.75-1.806 1.806-6.707 1.937-8.134.217-.574-.692-1.828-5.642-2.785-11-.957-5.357-2.116-9.74-2.577-9.74-.46 0-.838.574-.838 1.276 0 6.276-2.325 18.407-3.732 19.474-1.92 1.455-5.163 1.602-7.18.325zm37.141.108c-.975-.635-1.208-5.59-1-21.255l.271-20.428h18v7l-5.25.302-5.25.302v3.89c0 3.862.031 3.893 4.25 4.198 4.03.292 4.267.483 4.575 3.703.374 3.918-.884 5.067-5.575 5.09-3.177.014-3.25.114-3.25 4.462v4.448l5.25.302 5.25.303v8l-8 .255c-4.4.141-8.572-.116-9.27-.572zm26.706-1.892c-4.854-4.084-6.887-9.494-6.913-18.392-.026-9.147 1.235-13.326 5.334-17.676 4.105-4.356 9.362-5.924 14.6-4.355 5.046 1.512 7.044 3.539 7.044 7.144 0 3.94-1.26 4.388-5.685 2.016-5.07-2.717-6.935-2.562-10.361.865-2.785 2.784-2.884 3.211-2.662 11.407.27 9.974 1.85 12.7 7.363 12.7 3.291 0 3.345-.072 3.345-4.437 0-4.274-.118-4.448-3.25-4.75-2.751-.265-3.3-.757-3.58-3.205-.407-3.567 1.05-4.573 6.646-4.593 7.72-.027 8.184.654 8.184 12.035v9.98l-3.25 1.98c-5.007 3.054-12.724 2.723-16.815-.719zm21.393 1.119c-.547-1.424.972-7.957 7.825-33.66l2.067-7.75h4.273c3.584 0 4.373.363 4.887 2.25 5.8 21.312 9.732 38.015 9.246 39.282-.426 1.11-1.602 1.5-3.869 1.282-2.933-.283-3.398-.786-4.683-5.064l-1.426-4.75h-4.713c-4.654 0-4.72.046-5.413 3.75-.385 2.062-1.165 4.312-1.733 5-1.467 1.774-5.736 1.55-6.461-.34zm16.672-18.334c0-.508-.543-3.28-1.208-6.158l-1.208-5.234-1.272 4.908c-1.76 6.785-1.66 7.408 1.188 7.408 1.375 0 2.5-.416 2.5-.924zm17.2 18.724c-.726-.726-1.2-4.249-1.2-8.918 0-6.7-.587-9.277-4.456-19.544-2.451-6.504-4.083-12.199-3.627-12.655.456-.456 2.318-.684 4.138-.506 3.388.33 3.812.973 7.47 11.323.554 1.57 1.182.602 2.92-4.5 2.073-6.088 2.422-6.52 5.511-6.823 1.815-.178 3.697.076 4.185.563.514.514-1.007 5.873-3.628 12.78-4.014 10.581-4.513 12.8-4.513 20.08 0 6.542-.317 8.308-1.581 8.793-2.374.91-3.886.739-5.219-.593zm11.133-.377c-.333-.867 1.285-8.855 3.595-17.75l5.175-19.923c.938-3.61 1.138-3.75 5.326-3.75h4.352l2.067 7.75c6.853 25.703 8.372 32.236 7.825 33.66-.373.973-1.795 1.59-3.663 1.59-3.178 0-4.198-1.355-5.46-7.25-.543-2.541-.956-2.75-5.438-2.75-4.79 0-4.857.043-5.432 3.589-.32 1.974-1.11 4.224-1.754 5-1.576 1.9-5.842 1.793-6.593-.166zm15.14-22.527c-1.725-6.541-2.086-6.814-2.906-2.193-.37 2.088-.904 4.584-1.187 5.547-.409 1.39.098 1.75 2.463 1.75h2.976zm40.974 22.825c-.27-.703-.368-10.265-.218-21.25l.271-19.971 3.5-.295c1.925-.162 4.216.288 5.091 1s3.35 6.189 5.5 12.17l3.91 10.877.28-12.126.281-12.126h6.98l-.271 20.642c-.294 22.473-.542 23.385-5.987 22.018-2.776-.696-4.977-4.966-9.881-19.16l-2.764-8-.07 13.143c-.057 11.02-.324 13.24-1.65 13.75-2.523.968-4.442.708-4.972-.672zm30.796.122c-1.732-1.733-1.772-38.914-.043-40.643.684-.684 3.956-1.2 7.6-1.2 5.946 0 6.642.241 9.8 3.4 3.13 3.13 3.4 3.889 3.4 9.55 0 3.626-.642 7.392-1.566 9.178-1.566 3.028-6.582 5.872-10.358 5.872-1.774 0-2.02.78-2.282 7.25-.28 6.903-.414 7.264-2.8 7.543-1.38.16-3.067-.267-3.75-.95zm13.182-25.093c1.444-4.13-.3-8.174-3.693-8.567-2.713-.314-2.732-.274-2.732 5.817 0 6.09.02 6.13 2.732 5.816 1.934-.224 3.012-1.119 3.693-3.066zm12.022 24.971c-.27-.703-.368-10.265-.218-21.25l.271-19.971h7.232c6.74 0 7.441.209 10.302 3.07 2.727 2.729 3.072 3.732 3.093 9 .013 3.261-.419 7.089-.96 8.505-1.19 3.114-5.197 5.894-9.497 6.59-3.15.509-3.168.543-2.833 5.827.186 2.923-.168 6.258-.785 7.411-1.249 2.333-5.807 2.898-6.605.818zm11.946-23.303c.334-.87.607-2.858.607-4.418 0-4.094-.958-6-3.018-6-1.5 0-1.86 1.009-2.143 6.001-.314 5.575-.186 6.002 1.804 6 1.18 0 2.417-.713 2.75-1.583zm-595.393-30.418c-2.756-2.757-2.633-8.059.25-10.76 3.687-3.452 7.281-4.24 19.348-4.24 16.13 0 20.289-2.068 22.312-11.097 1.897-8.465-1.93-14.903-8.86-14.903-1.807 0-2.05.624-2.05 5.265 0 6.353-2.418 11.358-6.999 14.485-2.6 1.774-4.691 2.249-9.898 2.246-10.854-.006-16.103-4.94-16.103-15.136 0-3.676.565-4.744 4.5-8.515l4.5-4.312V212.44h36v2.5c0 2.389-.266 2.5-6 2.5h-6v11.76l5.987.432c6.493.47 9.798 2.605 12.715 8.214 2.147 4.129 1.375 14.668-1.342 18.333-5.669 7.643-13.687 10.244-31.61 10.255-10.22.006-10.879.352-8.265 4.341 3.27 4.992-4.103 9.046-8.485 4.665zm19.374-26.93c1.422-1.42 2.12-3.758 2.438-8.147l.446-6.155-7.737.39c-6.64.336-8.006.723-9.629 2.727-4.936 6.096.871 14.876 9.049 13.681 1.892-.276 4.337-1.4 5.433-2.495zm2.788-25.069-.34-6.001h-9.822v12l5.25.002 5.25.002-.338-6.002zm543.238 53.233c-4.39-2.93-3.901-10.027.927-13.47 2.853-2.035 4.657-2.315 17.845-2.764 13.919-.475 14.81-.629 17.379-3 8.415-7.77 6.85-21.129-2.652-22.64l-3.601-.574-.54 5.945c-1.066 11.766-5.755 16.259-16.973 16.265-6.082.003-7.047-.288-10.236-3.088-6.92-6.075-6.926-16.128-.013-21.644 3.45-2.752 3.464-2.8 3.464-11.014v-8.25h23.847l-1.546-3.099c-4.275-8.57 2.983-19.901 12.749-19.901 4.29 0 9.385 2.574 10.975 5.545.722 1.35 1.687 2.455 2.144 2.455.458 0 .831 13.275.831 29.5 0 28.833-.045 29.5-2 29.5-1.941 0-2-.675-2.023-23.25-.026-24.993-.672-30.274-4.038-33-5.742-4.652-15.844-.09-14.537 6.566.776 3.95 2.999 5.684 7.29 5.684 2.862 0 3.308.337 3.308 2.5 0 2.41-.233 2.5-6.5 2.5h-6.5v12h5.132c5.911 0 10.888 2.552 12.69 6.508 3.341 7.332 2.032 18.616-2.687 23.164-5.337 5.142-10.448 6.576-25.355 7.112-13.989.503-15.944 1.174-12.28 4.216 4.152 3.445-2.513 9.297-7.1 6.234zm16-26.37c2.892-1.318 5.6-7.307 5.6-12.385v-3.48h-6.565c-9.402 0-12.391 1.846-12.42 7.669-.022 4.678.934 6.401 4.385 7.904 3.854 1.678 5.818 1.741 9 .292zm5.6-26.864v-6h-11v12h11zm-621.853 30.843c-5.098-2.523-10.389-9.247-12.73-16.179-1.072-3.173-1.628-8.157-1.617-14.5.025-14.132 3.459-22.854 11.185-28.408 13.794-9.915 34.015-2.24 34.015 12.91 0 7.62-6.132 14.328-13.102 14.332-9.723.006-15.259-14.608-8.828-23.306l2.218-3-3.31.662c-4.896.98-9.945 5.32-12.259 10.537-2.737 6.172-2.926 25.444-.31 31.609 2.906 6.846 9.795 12.5 15.234 12.5 1.49 0 1.438-.286-.402-2.25-4.636-4.95-5.341-10.845-2.098-17.545 4.764-9.84 16.324-9.054 21.735 1.479 3.678 7.158-1.22 18.355-9.595 21.939-5.02 2.147-15.003 1.76-20.136-.78zm21.449-11.417c2.274-5.444-.456-11.426-5.215-11.426-2.84 0-4.38 2.675-4.38 7.605 0 7.568 6.884 10.31 9.595 3.821zm-.233-30.738c1.672-3.425 1.72-4.188.462-7.5-2.807-7.4-9.825-4.618-9.825 3.895 0 8.517 5.86 10.773 9.363 3.605zm72.637 42.692c-4.74-2.97-6.5-6.419-6.5-12.745 0-5.64.162-6.008 4.25-9.636l4.25-3.771v-16.228h15.881l-1.434-2.75c-2.013-3.86-1.8-7.126.803-12.288 2.824-5.6 7.5-8.25 13.486-7.641 5.654.574 9.037 2.965 11.326 8.007 1.709 3.763 1.897 6.842 1.917 31.422l.022 27.25h-5l-.015-25.75c-.017-28.854-.275-30.188-6.123-31.643-8.983-2.236-15.073 4.364-10.306 11.17 1.355 1.934 2.459 2.223 8.5 2.223 6.74 0 6.944.073 6.944 2.5 0 2.389-.267 2.5-6 2.5h-6v12h5.07c4.684 0 5.044.17 4.75 2.25-.274 1.92-1.017 2.294-5.07 2.554l-4.75.305-.002 5.195c-.002 6.41-2.397 11.42-6.897 14.426-4.2 2.805-15.07 3.176-19.102.65zm11.713-4.43c3.485-1.215 5.198-4.4 5.998-11.154l.568-4.796h-6.689c-11.184 0-15.322 3.918-12.15 11.507 2.07 4.954 6.356 6.506 12.273 4.443zm6.287-26.95v-6h-11v12h11zm36.313 30.75c-3.556-3.931-4.313-8.385-4.313-25.4v-16.35h4.774l.406 17.25c.462 19.64 1.137 22.048 6.038 21.558 1.99-.199 3.83-1.31 5.184-3.129 1.893-2.545 2.131-4.427 2.435-19.25l.336-16.43h8.827v39h21v-39h8v44h-19c-17.013 0-19-.172-19-1.654 0-1.54-.127-1.54-1.828 0-2.826 2.557-10.32 2.21-12.859-.595zm90.687-19.75v-22h9v39h12v-15.466c0-21.131 1.748-24.534 12.597-24.534 7.079 0 13.798 4.7 16.443 11.5 1.983 5.1 1.528 17.469-.81 22.032-5.093 9.932-9.337 11.468-31.697 11.468H558.99zm37.606 15.091c9.867-4.48 11.685-23.998 2.88-30.923-3.028-2.383-7.414-2.84-9.286-.968-.835.835-1.2 6.155-1.2 17.5 0 18.373-.224 17.947 7.606 14.391zm20.814 5.023c-7.965-4.857-8.582-19.013-1.005-23.069 2.481-1.327 2.585-1.74 2.585-10.214v-8.831h37v2.5c0 2.389-.266 2.5-6 2.5h-6v12h5.05c9.45 0 13.95 4.135 13.95 12.818 0 6.38-2.56 10.682-7.616 12.795-4.22 1.763-12.115 1.775-15.47.025-2.173-1.134-2.884-1.133-4.441.006-2.87 2.098-14.292 1.763-18.053-.53zm12.064-4.108c3.166-1.204 5.516-6.353 5.516-12.084v-4.14l-7.411.373c-8.65.437-11.589 2.282-11.589 7.277 0 7.03 6.565 11.204 13.484 8.574zm21.521-.509c5.434-2.81 5.066-12.38-.557-14.517-5.227-1.988-6.443-1.375-6.491 3.27-.025 2.337-.64 5.92-1.369 7.96-.954 2.673-1.012 3.84-.206 4.171 2.277.938 5.8.577 8.623-.884zm-16.005-26.497v-6h-9.822l-.339 6.001-.339 6.002 5.25-.002 5.25-.002v-6zm34.615 30.911c-3.831-3.014-5.615-7.098-5.615-12.862 0-4.558.39-5.439 4-9.05l4-4v-16h36v2.5c0 2.39-.266 2.5-6 2.5h-6v12l5.25.015c6.412.018 9.489 1.474 12.47 5.898 4.084 6.06 2.045 14.367-4.617 18.818-4.012 2.68-13.487 3.171-16.643.864-1.652-1.208-2.306-1.208-4.641 0-4.334 2.24-14.995 1.841-18.204-.683zm13.42-4.43c3.114-1.61 3.708-3.135 4.183-10.731l.297-4.75h-6.307c-3.697 0-7.528.63-9.257 1.525-2.648 1.37-2.95 2.02-2.95 6.345 0 3.332.54 5.299 1.75 6.371 3.248 2.881 8.155 3.376 12.285 1.24zm21.33-.554c2.102-1.653 2.632-2.918 2.62-6.25-.008-2.297-.346-4.672-.75-5.278-1.171-1.754-4.883-3.4-7.669-3.4-2.352 0-2.566.354-2.566 4.257 0 2.341-.444 5.806-.987 7.7-.73 2.548-.666 3.645.25 4.227 2.246 1.426 6.426.85 9.103-1.256zm-17.203-25.926-.34-6.001h-9.822v12l5.25.002 5.25.002-.338-6.002zm37.238 30.49c-3.958-3.96-5.646-9.19-5.71-17.693-.048-6.618.358-8.51 2.885-13.451 2.458-4.807 3.82-6.21 8.297-8.549 7.05-3.683 13.96-3.793 20.48-.326 4.457 2.37 4.648 2.39 4.648.5 0-1.875.738-1.972 15-1.972h15v2.5c0 2.06-.483 2.5-2.75 2.5l-2.75-.002V255.938l-4.25.308-4.25.308V217.439h-5.25l-5.25-.002V255.938l-4.25.308-4.25.308v-14.09c0-20.499-2.19-24.475-13.502-24.507-5.387-.016-6.73.354-9.006 2.482-3.435 3.21-4.65 5.522-5.226 9.936l-.464 3.564 2.904-2.75c4.285-4.058 9.428-3.817 13.894.65 3.116 3.115 3.4 3.905 3.4 9.435 0 11.175-3.037 15.165-11.545 15.165-4.587 0-5.979-.434-8.055-2.51zm10.365-5.5c1.484-2.814 1.034-9.324-.797-11.53-.667-.804-2.041-1.461-3.055-1.461-3.835 0-5.201 7.607-2.355 13.112 1.837 3.552 4.294 3.504 6.207-.121zm88.655 6.123c-3.852-2.349-6.42-7.624-6.42-13.187 0-3.756.543-4.79 4.5-8.582l4.5-4.312V212.44h36v2.5c0 2.389-.266 2.5-6 2.5h-6v12h4.5c4.134 0 4.5.203 4.5 2.5 0 2.296-.366 2.5-4.5 2.5h-4.5l-.022 4.75c-.029 6.307-3.044 12.71-7.17 15.225-4.484 2.735-15.007 2.81-19.388.139zm11.967-4.071c3.37-1.282 5.613-5.918 5.613-11.603v-4.659l-7.608.384c-6.508.329-7.882.722-9.5 2.72-3.257 4.023-1.706 10.384 3.128 12.83 2.995 1.515 5.034 1.595 8.367.328zm5.775-27.042-.34-6.001h-9.822v12l5.25.002 5.25.002-.338-6.002zm29.258 31.113c-3.852-2.349-6.42-7.623-6.42-13.187 0-3.756.543-4.79 4.5-8.582l4.5-4.312V212.44h36v2.5c0 2.41-.233 2.5-6.5 2.5h-6.5v12h5.55c3.052 0 6.87.682 8.483 1.517 8.39 4.339 7.69 19.222-1.117 23.731-4.07 2.084-12.368 2.286-16.002.39-2.173-1.134-2.884-1.133-4.441.006-2.87 2.098-14.292 1.763-18.053-.53zm11.963-4.07c3.499-1.33 5.379-4.637 6.201-10.907l.704-5.362-8.114.368c-9.69.44-11.693 1.806-11.534 7.868.186 7.105 5.829 10.662 12.743 8.033zm21.546-.507c3.328-1.721 4.071-3.304 4.071-8.67 0-3.584-.336-4.11-3.467-5.418-1.908-.797-4.608-1.45-6-1.45-2.407 0-2.533.277-2.533 5.566 0 3.062-.496 6.494-1.103 7.628-1.983 3.705 3.598 5.154 9.032 2.344zm-14.929-26.537v-6h-12v12h12zm-254.5-18.195c-2.594-1.471-3.465-2.822-3.484-5.4-.037-4.992 7.54-7.305 10.428-3.183 2.137 3.052 1.951 5.332-.632 7.739-2.485 2.314-3.483 2.448-6.312.844zm120.723-.362c-2.478-1.736-3.08-7.185-1.023-9.243 1.99-1.99 6.529-1.426 8.244 1.022 2.095 2.991 1.96 5.375-.444 7.778-2.406 2.407-3.84 2.5-6.777.443zm131.3-.83c-2.94-2.94-3.113-4.326-.926-7.447 2.328-3.325 7.412-2.667 9.256 1.198 1.22 2.558 1.156 3.147-.599 5.5-2.653 3.558-4.722 3.758-7.73.75zM719.3 189.493c-2.968-1.348-4.792-3.08-6.25-5.938-1.92-3.766-2.058-5.76-2.055-29.825.003-23.97.144-26.02 1.991-29.05 3.879-6.36 6.71-7.233 23.505-7.235 17.092-.002 20.474.984 23.966 6.995 1.853 3.187 2.03 5.153 1.98 22-.064 21.802-.694 23.895-8.19 27.21-3.562 1.577-5.907 1.918-10.385 1.512-10.939-.992-14.87-6.58-14.87-21.136 0-8.047-.575-9.586-3.582-9.586-.23 0-.419 7.335-.419 16.3 0 11.344.365 16.664 1.2 17.5.83.829 5.94 1.2 16.525 1.2h15.325l1.017 2.673c1.434 3.774.283 7.999-2.374 8.711-1.206.324-9.168.585-17.693.58-13.089-.007-16.151-.304-19.69-1.911zm28.491-27.253c.826-.826 1.2-5.823 1.2-16 0-18.55-.157-18.8-11.777-18.8-8.99 0-12.222 1.535-12.223 5.806v2.694l9.026-.35c6.114-.238 9.503.043 10.5.872 1.913 1.586 1.897 6.382-.026 7.978-3.01 2.499-1.708 19 1.5 19 .33 0 1.14-.54 1.8-1.2zm-435.501 11.24c-1.76-1.073-3.836-3.21-4.61-4.746-1.927-3.82-2.707-14.292-1.722-23.115.908-8.134 2.957-11.34 8.853-13.85 3.954-1.684 3.71-3.46-.648-4.709-2.7-.774-3.172-1.379-3.172-4.065 0-4.254 1.582-5.555 6.75-5.555 5.061 0 9.249 1.911 12.084 5.515 1.947 2.475 2.03 2.49 2.66.503.665-2.092 5.906-5.23 10.626-6.363 2.133-.511 2.74-1.38 3.267-4.673.735-4.594 3.855-6.527 8.787-5.444 3.26.716 3.5 2.498 1.81 13.462-1.537 9.974-1.835 10.818-4.071 11.528l-2.084.66 2.02 2.156c3.326 3.552 4.153 7.247 4.13 18.47-.017 8.23-.448 11.623-1.874 14.762-2.94 6.475-6.044 7.424-24.256 7.42-13.459-.003-15.743-.244-18.55-1.956zm30.06-10.313c1.427-1.044 1.741-2.865 1.741-10.088 0-5.27-.47-9.382-1.172-10.227-1.784-2.149-21.191-2.005-22.997.171-1.848 2.227-1.893 17.552-.058 19.763 1.104 1.33 3.268 1.654 11.059 1.654 6.264 0 10.301-.45 11.427-1.273zm17.717 9.972c-1.537-4.044-.181-7.728 3.086-8.382 1.6-.32 3.344-1.393 3.874-2.384.53-.99.964-8.55.964-16.796 0-15.952-.613-18.137-5.096-18.137-2.38 0-3.901-3.56-3.166-7.409.531-2.778.602-2.803 6.867-2.404 4.984.318 6.897.926 8.992 2.858 4.776 4.405 5.404 7.446 5.402 26.173-.001 14.457-.287 17.85-1.75 20.762-2.542 5.06-7.496 8.02-13.421 8.02-4.17 0-5.004-.334-5.752-2.3zm31.114.323c-1.82-1.136-3.942-3.58-4.715-5.43-1.817-4.349-3.86-21.102-2.794-22.919.45-.768 4.307-4.462 8.57-8.208 4.262-3.747 7.75-7.184 7.75-7.639 0-.454-1.321-.826-2.935-.826-1.615 0-4.09-.44-5.5-.976-2.089-.794-2.566-1.634-2.566-4.524s.477-3.731 2.566-4.525c3.517-1.337 11.201-1.15 15.471.377 2.851 1.02 4.112 1.02 6.5.001 4.417-1.883 14.331-1.67 18.43.398 1.906.962 4.38 3.323 5.5 5.248 1.859 3.2 2.025 5.103 1.93 22.156-.09 16.498-.325 19.042-2.033 22-2.77 4.796-7.665 7.056-13.864 6.4-5.903-.624-5.187-.625-18.5.023-9.401.457-10.846.295-13.81-1.556zm17.61-10.222c.698-.698 1.2-4.04 1.2-7.977v-6.777l-4.186-2.022-4.186-2.023-2.408 2.25c-2.143 2.001-2.365 2.925-2.023 8.394.212 3.38.984 6.868 1.717 7.75 1.573 1.895 8.128 2.164 9.886.405zm17.185-17.85c.016-16.217-.404-17.95-4.356-17.95-5.453 0-7.625 7.461-3.045 10.462 3.908 2.561 5.415 7.347 5.432 17.256.01 6.039.318 8.313.984 7.282.534-.825.977-8.498.985-17.05zm25.787 27.675c-5.252-3.54-6.778-7.301-7.415-18.28l-.572-9.845 8.538-7.46c4.695-4.102 8.317-7.814 8.048-8.25-.269-.434-1.842-.79-3.495-.79-5.03 0-6.876-1.59-6.876-5.919 0-3.145.411-3.958 2.25-4.451 3.952-1.059 12.708-.675 16.033.704 2.642 1.095 3.754 1.103 6.217.045 4.436-1.906 14.346-1.706 18.466.372 6.683 3.371 7.534 6.394 7.534 26.749 0 19.942-.604 22.722-5.772 26.543-3.606 2.666-12.854 3.926-15.104 2.059-.899-.746-2.208-.84-3.752-.268-1.304.483-6.549.888-11.654.9-7.841.02-9.773-.308-12.446-2.11zm35.215-26.066c-.008-7.733-.281-15.057-.608-16.276-1.406-5.243-9.379-2.901-9.379 2.754 0 2.112.955 3.843 3.25 5.893l3.25 2.901.345 11.315c.305 10.013.507 11.094 1.75 9.393 1.051-1.437 1.402-5.465 1.392-15.98zm-23.065 10.44c3.432 0 5.078 1.17 5.078 3.608 0 1.316.45 2.393 1 2.393.57 0 1-2.977 1-6.929 0-7.348-1.355-10.071-5.012-10.071-1.028 0-2.169-.484-2.534-1.076-.425-.687-1.527-.265-3.059 1.175-2.061 1.936-2.395 3.177-2.395 8.908 0 7.693.959 9.46 2.75 5.072.787-1.93 1.971-3.08 3.172-3.08zm67.383 16.045c-6.04-3.683-6.805-5.992-6.805-20.544 0-15.375.808-17.345 8.588-20.95 5.281-2.446 5.185-3.69-.395-5.091-2.566-.644-2.77-1.04-2.494-4.83l.301-4.13 4.897-.31c5.792-.368 9.927 1.135 12.651 4.599l1.98 2.517 2.896-2.903c1.593-1.596 4.624-3.388 6.736-3.98 3.301-.927 4.032-1.674 5.207-5.32 1.542-4.784 4.615-6.595 9.406-5.543 2.781.611 2.897.845 2.369 4.792-.306 2.282-.85 7.6-1.209 11.818-.606 7.13-.83 7.714-3.179 8.303l-2.526.634 2.886 3.013 2.886 3.012v14.184c0 12.612-.221 14.486-2 16.902-3.688 5.01-6.85 5.783-23.65 5.779-13.45-.003-15.745-.245-18.545-1.952zm30.124-10.616c1.178-1.178 1.571-3.664 1.571-9.928 0-11.13-.401-11.5-12.49-11.5-5.14 0-10.058.273-10.928.607-1.292.495-1.582 2.383-1.582 10.3 0 6.205.432 10.124 1.2 10.893 1.917 1.916 20.247 1.61 22.23-.372zm23.688 10.86c-5.314-2.618-7.068-7.668-7.095-20.422-.02-10.19.072-10.658 2.228-11.236 3.704-.992 8.648-.711 10.768.612 3.299 2.06 5.438-.118 5.742-5.845.143-2.694-.124-5.485-.593-6.203-.47-.719-3.407-1.57-6.527-1.892-4.81-.496-5.759-.929-6.239-2.842-1.844-7.348 2.699-9.708 14.72-7.647 5.143.883 7.534.907 9.056.092 1.193-.639 5.367-.956 9.878-.751 9.022.41 12.7 2.404 14.639 7.94.743 2.121 1.207 10.006 1.228 20.906.03 15.25-.216 18.051-1.911 21.787-1.4 3.086-2.928 4.698-5.446 5.75-4.051 1.693-11.688 1.939-13.202.426-.716-.717-1.881-.717-3.765 0-4.441 1.688-19.566 1.253-23.481-.676zm17.683-10.488c.66-.66 1.2-3.408 1.2-6.107 0-4.289-.22-4.814-1.75-4.168-.962.406-3.792 1.17-6.288 1.697-4.497.95-4.535.993-4.121 4.618.23 2.013.922 3.99 1.539 4.394 1.786 1.172 8.106.88 9.42-.434zm17.2-16.851c0-13.036-.275-16.082-1.57-17.378-1.899-1.898-2.564-1.944-4.67-.321-1.861 1.433-2.735 8.5-1.18 9.549 3.482 2.353 4.42 5.76 4.42 16.046 0 9.13.184 10.248 1.5 9.155 1.218-1.01 1.5-4.221 1.5-17.051zm44.299 27.091c-5.605-3.418-6.71-6.883-7.124-22.364-.436-16.32.046-19.596 3.485-23.683 3.514-4.176 8.368-5.993 16.012-5.993 10.687 0 14.376 3.2 15.8 13.71.975 7.2.004 10.954-3.03 11.715-2.278.572-2.442 1.052-2.442 7.16 0 7.722 1.162 10.415 4.496 10.415 3.954 0 4.688-4.79 4.325-28.203-.236-15.263-.661-21.043-1.617-22-.887-.888-5.77-1.455-15.5-1.797l-14.204-.5-.3-3.586c-.487-5.808.586-6.132 19.055-5.751 25.29.521 24.755-.258 24.724 36.055-.02 22.672-.219 25.714-1.922 29.465-1.138 2.507-3.113 4.812-4.928 5.75-3.57 1.847-14.312 2.096-19.055.442-2.388-.832-3.517-.832-4.35 0-1.827 1.829-9.878 1.328-13.425-.835zm12.951-31.932c3.077-3.65 3.145-3.94 1.775-7.543-.729-1.918-1.688-2.565-3.8-2.565-4.817 0-5.225 1.259-5.225 16.128 0 11.74.254 13.983 1.75 15.486 1.668 1.674 1.774 1.284 2.25-8.243.454-9.078.754-10.301 3.25-13.263zm95.049 31.932c-6.04-3.683-6.799-6.531-6.799-25.54 0-24.782 1.327-26.5 20.45-26.5h11.05v4.375c0 4.1-.196 4.414-3.125 5-1.718.343-4.898.625-7.065.625-7.638 0-7.81.343-7.81 15.6 0 7.442.466 14.402 1.036 15.465 1.392 2.601 7.99 2.669 10.31.106 1.835-2.028 2.206-8.272.662-11.157-.546-1.02-2.57-2.375-4.5-3.012-3.195-1.054-3.508-1.497-3.508-4.973 0-4.31 1.018-5.03 7.114-5.03 5.334 0 10.345 2.244 12.559 5.623 2.59 3.953 2.609 19.447.029 24.172-3.094 5.666-6.862 7.198-17.702 7.198-7.662 0-10.119-.377-12.701-1.952zm42.048-.094c-6.182-3.961-8.785-14.487-5.973-24.16 1.964-6.757 4.783-8.91 12.942-9.887 3.198-.383 6.075-.956 6.392-1.274 1.22-1.219-2.138-3.67-5.837-4.262l-3.87-.619v-9.744h7.923c7.474 0 8.093.17 10.93 3.007 2.1 2.1 3.362 4.716 4.182 8.662 1.056 5.087.833 11.795-.433 13.062-.266.265-4.355.724-9.087 1.02-7.22.45-8.837.87-10.06 2.615-1.903 2.717-1.855 7.618.101 10.411 1.438 2.053 2.346 2.223 11.878 2.223 7.166 0 10.645-.392 11.383-1.28 1.26-1.52 2.042-36.16.888-39.362-1.058-2.937-3.207-3.329-18.349-3.345-14.33-.015-14.357-.026-14.357-6.087 0-1.826.745-3.374 2-4.158 1.127-.704 2.007-2.345 2.016-3.759.02-3.28.716-4.237 5.374-7.382 3.72-2.512 4.476-2.627 17.305-2.627H853.1l-.305 4.75-.305 4.75-10.42.5c-7.073.34-10.552.901-10.833 1.75-.308.93 1.646 1.25 7.65 1.25 10.868 0 15.366 1.844 18.058 7.406 1.87 3.863 2.045 6.106 2.045 26.175 0 31.948-.382 32.426-26 32.4-13.829-.013-15.84-.233-18.653-2.035zm54.958.146c-6.469-4.042-6.805-5.38-6.805-27.092 0-17.196.22-19.925 1.805-22.342 2.838-4.331 7.5-6.65 13.378-6.655 4.367-.003 5.286.323 5.84 2.07.64 2.012.717 2.02 2.671.25 2.996-2.714 18.95-3.131 23.722-.62 6.267 3.297 7.087 6.409 7.063 26.781-.02 15.367-.295 18.615-1.874 22.092-2.43 5.349-7.4 7.85-13.952 7.02-5.383-.682-4.53-.68-18.153-.018-9.297.453-10.865.283-13.695-1.486zm17.625-10.508c.693-.835 1.051-3.809.873-7.25-.302-5.832-.304-5.835-4.053-6.76l-3.75-.927v-10.324c0-5.802-.413-10.323-.943-10.323-.519 0-1.644 1-2.5 2.222-2.29 3.27-2.278 30.914.015 33.206 1.961 1.961 8.775 2.064 10.358.156zm17.276-17.145c.017-14.087-.176-15.945-1.784-17.12-4.793-3.505-9.422-.444-9.422 6.229 0 3.62.456 4.704 2.552 6.077 4.14 2.712 5.448 6.447 5.448 15.54 0 7.56.136 8.128 1.594 6.67 1.322-1.322 1.597-4.288 1.612-17.396zm22.794 27.357c-6.04-4.092-6.5-6.036-6.5-27.474 0-17.822.147-19.377 2.072-22 2.974-4.053 8.064-6.319 14.2-6.32 4.59-.002 5.412.307 6.362 2.391l1.09 2.394 3.585-2.432c3.144-2.133 4.513-2.397 11.138-2.144l7.553.289.305 4.194c.302 4.153.267 4.2-3.5 4.814-9.398 1.53-11.438 4.963-3.555 5.985 8.032 1.041 9.23 1.47 12.29 4.394l2.96 2.83v13.65c0 13.273-.071 13.73-2.59 16.558-3.844 4.313-7.188 5.323-15.573 4.702-9.518-.706-9.029-.705-18.337-.035-7.287.524-8.311.365-11.5-1.796zm12.8-9.996c.697-.697 1.2-4.037 1.2-7.965 0-5.665.315-6.933 1.935-7.8 2.225-1.191 8.032-1.353 9.691-.27.62.404 1.316 3.778 1.548 7.497.48 7.675 2.542 11.035 5.595 9.115 1.371-.862 1.792-2.816 2.024-9.39.17-4.796-.143-8.738-.741-9.336-.57-.569-5.078-1.228-10.02-1.464l-8.986-.43-.648-3.454c-.357-1.9-.376-5.446-.042-7.88.585-4.272.515-4.423-2.046-4.423-1.459 0-3.475.744-4.48 1.655-1.62 1.465-1.83 3.401-1.83 16.928 0 12.552.28 15.554 1.572 16.845 1.879 1.88 3.599 2.001 5.228.372zm-547.133-48.467c-1.214-1.214-.691-9.385.782-12.235 2.85-5.511 4.98-6.098 22.116-6.098h15.635l3.452 3.451c3.246 3.247 3.433 3.795 3.15 9.25l-.302 5.799-4.707.303c-4.577.294-4.732.211-5.562-3l-.854-3.303-11.1-.282-11.1-.282-1.166 3.532c-1.091 3.306-1.437 3.532-5.421 3.532-2.341 0-4.556-.3-4.923-.667z" transform="translate(-25.009 -96.439)"/></svg>