<svg xmlns="http://www.w3.org/2000/svg" viewBox="0 0 86.07 85.73"><defs><style>.cls-1{fill:#FFFFFF;}</style></defs><title>Asset 1</title><g id="Layer_2" data-name="Layer 2"><g id="Layer_1-2" data-name="Layer 1"><rect class="cls-1" x="15.6" y="48.97" width="4.29" height="0.94" transform="translate(-12.46 6.47) rotate(-15.36)"/><polygon class="cls-1" points="20.62 37.16 15.88 36.99 16.27 35.57 18.9 35.76 16.63 34.31 17.02 32.9 19.71 32.85 17.37 31.64 17.77 30.23 21.91 32.54 21.5 34 18.47 34.07 21.03 35.69 20.62 37.16"/><rect class="cls-1" x="18.59" y="60.18" width="4" height="0.94" transform="translate(-33.39 26.17) rotate(-38.68)"/><rect class="cls-1" x="25.29" y="22.38" width="0.94" height="4.33" transform="translate(-9.45 29.67) rotate(-51.9)"/><path class="cls-1" d="M32.56,68.8a1.92,1.92,0,0,1-.23,1.35l-1.28-.74a1.24,1.24,0,0,0,.14-.57.81.81,0,0,0-.41-.63.71.71,0,0,0-.51-.16.46.46,0,0,0-.35.2.44.44,0,0,0-.05.39,1.84,1.84,0,0,0,.5.69,3.45,3.45,0,0,1,.88,1.32,1.23,1.23,0,0,1-.18,1,1.29,1.29,0,0,1-.59.49,1.55,1.55,0,0,1-.87.08,3.32,3.32,0,0,1-1.14-.53,2.58,2.58,0,0,1-1-1.11,1.58,1.58,0,0,1,.13-1.29l1.28.74a.7.7,0,0,0,.27,1,.65.65,0,0,0,.41.13A.38.38,0,0,0,29.8,71a.28.28,0,0,0,0-.24,1.15,1.15,0,0,0-.33-.45,6.21,6.21,0,0,1-1-1.18,1.49,1.49,0,0,1-.23-.82,1.31,1.31,0,0,1,.25-.73,1.62,1.62,0,0,1,.72-.6,1.64,1.64,0,0,1,1-.1,3,3,0,0,1,1.13.5A2.45,2.45,0,0,1,32.56,68.8Z"/><rect class="cls-1" x="35.4" y="14.28" width="0.94" height="4" transform="translate(-3.43 13.63) rotate(-20.56)"/><rect class="cls-1" x="39.5" y="71.95" width="4.24" height="0.94" transform="translate(-35.16 105.3) rotate(-83.29)"/><path class="cls-1" d="M27.66,35.56l6.15.61a1,1,0,0,0,.84-.32l4.94-5.31a.77.77,0,0,0,.21-.61l-.38-1.84a.25.25,0,0,1,.41-.24L42.28,30l0,0h0a24.54,24.54,0,0,1,3.13.14c.68.08,1.51.2,2.47.39a.33.33,0,0,1,.22.48h0a.33.33,0,0,1-.36.16,11.25,11.25,0,0,0-12.35,6.09,11.08,11.08,0,0,0,2.44,12.47.14.14,0,0,1-.13.24,7,7,0,0,1-1.46-.75,6.22,6.22,0,0,1-1.22-.89.17.17,0,0,0-.1,0l-3,.16a.39.39,0,0,1-.32-.64c.48-.56,1.06-1.19,1.39-1.64a2.29,2.29,0,0,0,.4-1.06,13,13,0,0,0-.08-3.25A13.81,13.81,0,0,0,33,39.81a2.24,2.24,0,0,0-.89-1.18c-1.14-.76-3.07-1.69-4.57-2.53A.29.29,0,0,1,27.66,35.56Z"/><rect class="cls-1" x="45.65" y="13.41" width="4.71" height="0.94" transform="translate(31.11 60.91) rotate(-86.36)"/><rect class="cls-1" x="53.41" y="67.92" width="0.94" height="3.71" transform="translate(-22.41 25.6) rotate(-22.25)"/><path class="cls-1" d="M55.42,20.27c-.44.52-.88,1-1.31,1.47-.75.81-1.48,1.53-2.18,2.17l1.4.35-4.87,9.09A3.62,3.62,0,0,1,47.4,34.5a3.44,3.44,0,0,1-1.2.52l-.36,0a5.61,5.61,0,0,0-1.16,0,6.19,6.19,0,0,0-3.3,1.22,6.47,6.47,0,0,0-2.53,4.34,6.59,6.59,0,0,0,1.27,4.66,5.6,5.6,0,0,0,.6.69,1.13,1.13,0,0,1,.44.66c.12,1.12-.66,2.14-1.2,3l-1.53,2.53L36.2,55.78a6.57,6.57,0,0,0-2.65.33,4.67,4.67,0,0,0-2.46,1.66,2.9,2.9,0,0,0-.49,2.53.36.36,0,0,0,.18.16l.39-.12A3.91,3.91,0,0,1,33.45,58a3.69,3.69,0,0,1,3.06.25,3.32,3.32,0,0,1,1.64,2.36,3.38,3.38,0,0,1-.08.93,5.27,5.27,0,0,1-.19.52,2.69,2.69,0,0,0-.13.32c0,.08-.18.57,0,.74s.56,0,.71-.09a1.9,1.9,0,0,0,.79-.69,3.11,3.11,0,0,0,.5-1.34,5,5,0,0,0-.35-2.75,4.91,4.91,0,0,0-1.71-2l.31-.57q1.19-2.13,2.35-4.26c.39-.69.78-1.39,1.16-2.09a3.86,3.86,0,0,1,1.14-1.51,3.82,3.82,0,0,1,1.57-.54c.56-.09,1.12-.21,1.68-.25,1.31-.1,2.72,0,3.83-.81a4.33,4.33,0,0,0,1.83-3.78,11.47,11.47,0,0,0-1.49-4.31c-.39-.73-.35-.61-.44-.81a4.44,4.44,0,0,1-.28-2.08,4,4,0,0,1,.44-1.46q1.17-2.3,2.33-4.59t2.34-4.59l1,1.28c.28-1.43.64-3,1.1-4.6s1-3.23,1.54-4.64A39.75,39.75,0,0,1,55.42,20.27ZM50.15,40.82a3.25,3.25,0,0,1,.37,2.9,2.92,2.92,0,0,1-3.11,2.21l-.25-.07A2.19,2.19,0,0,1,46,45h0a2.72,2.72,0,0,1-.35-.75,3.19,3.19,0,0,1-.13-1.12,3.6,3.6,0,0,1,1.21-2.53,2.59,2.59,0,0,1,1-.54,2.06,2.06,0,0,1,.82-.11A1.91,1.91,0,0,1,49,40,2.15,2.15,0,0,1,50.15,40.82Zm-7.09,1a2.25,2.25,0,0,0,.24.8,2.38,2.38,0,0,0,.48.69l-.05,0-.22-.1-.2-.13-.18-.16a1,1,0,0,1-.17-.18,2.36,2.36,0,0,1-.46-.89,2.64,2.64,0,0,1-.06-1,2.38,2.38,0,0,1,.05-.26,2.58,2.58,0,0,1,.08-.26,3.58,3.58,0,0,1,.24-.48c0-.08.11-.15.16-.22a1.18,1.18,0,0,1,.18-.21l.19-.18.22-.16a2.46,2.46,0,0,1,1-.4,2.29,2.29,0,0,1,1,0,1.44,1.44,0,0,1,.45.17,1.05,1.05,0,0,1,.21.12,1.39,1.39,0,0,1,.19.15l0,.06a2.62,2.62,0,0,0-.83-.13,2.52,2.52,0,0,0-.82.14,2.47,2.47,0,0,0-1.3,1A2.37,2.37,0,0,0,43.06,41.78ZM49.6,38.9l-1.78-.13a3.68,3.68,0,0,0-2.77-1.25A3.78,3.78,0,0,0,44.51,45l.78,1.46h-.24a5.21,5.21,0,0,1,0-10.42A5.11,5.11,0,0,1,49.6,38.9Z"/><path class="cls-1" d="M61.33,47.8l-5.85-.87a.92.92,0,0,0-.83.28,27,27,0,0,0-2.42,2.52,28.45,28.45,0,0,0-1.87,2.51,1,1,0,0,0-.17.27.74.74,0,0,0,0,.33l.28,1.83a.25.25,0,0,1-.41.23l-2.25-2.23a.05.05,0,0,0,0,0h0a15,15,0,0,1-3,.28,26.19,26.19,0,0,1-3.41-.51.33.33,0,0,1-.19-.48h0a.31.31,0,0,1,.34-.14c4.82,1.25,10.35-1.7,12.5-6a11.19,11.19,0,0,0-1.78-12.42s0-.19.14-.24.69.45,1.37,1.12c.28.27.56,1.06,1.28,1.13,1,.09,1.79.09,2.85.1a.38.38,0,0,1,.27.64c-.48.53-1.12.54-1.45,1a2.26,2.26,0,0,0-.44,1,13.89,13.89,0,0,0-.07,3.22,19.64,19.64,0,0,0,.26,2.39,2.24,2.24,0,0,0,.79,1.2c1.07.8,3,1.5,4.38,2.39A.29.29,0,0,1,61.33,47.8Z"/><polygon class="cls-1" points="56.91 17.22 55.67 16.49 57.99 12.54 59.22 13.27 59.54 16.39 60.82 14.21 62.06 14.94 59.74 18.88 58.5 18.16 58.18 15.05 56.91 17.22"/><rect class="cls-1" x="63.66" y="59.99" width="0.94" height="3.83" transform="translate(-24.68 69.51) rotate(-48.88)"/><rect class="cls-1" x="65.6" y="24.46" width="4.69" height="0.94" transform="translate(0.75 51.82) rotate(-41.96)"/><polygon class="cls-1" points="69.47 46.93 73.84 48.83 72.07 52.91 71.13 52.51 72.24 49.95 71.55 49.65 70.52 52.02 69.63 51.64 70.66 49.26 69.8 48.89 68.66 51.52 67.67 51.09 69.47 46.93"/><rect class="cls-1" x="71.86" y="37.39" width="4.12" height="0.94" transform="translate(-5.57 13.79) rotate(-10.28)"/><path class="cls-1" d="M82.81,25.48A38.91,38.91,0,0,0,72.4,11.16a40.15,40.15,0,0,0-7.86-5c-1.52-.7-3.41-1.43-5.7-2.3-1-.37-3.1-1.19-4.56-1.68A48.52,48.52,0,0,0,43.87.1C29.56-1,17.47,7.59,17.47,7.59,4.17,17,1.23,31.29.57,35.35c-.51,3.1-2.64,18.19,6.76,31.09a41.59,41.59,0,0,0,15.92,13l5,2c3,1.16,4.53,1.74,5.35,2a41.38,41.38,0,0,0,9.56,2.21,30,30,0,0,0,11.54-1.52A42.54,42.54,0,0,0,71.66,75,43.88,43.88,0,0,0,83.12,58.07C84.14,55.37,89.39,40.76,82.81,25.48ZM59.28,5.68a.07.07,0,0,1,.07,0h0a24.13,24.13,0,0,1,6.73,2.29l.8.41.39.22.39.22.77.47.75.49c.49.34,1,.68,1.46,1l.35.27.35.29c.23.19.47.37.69.57l.67.6.66.62.16.15.15.17.32.32.31.32.3.33c.4.44.79.9,1.17,1.37l.55.7.52.73a24.45,24.45,0,0,1,3.24,6.33h0a.06.06,0,0,1,0,.08.06.06,0,0,1-.07,0c-.56-1-1.16-2-1.81-3s-1.33-1.91-2.06-2.82S74.62,16,73.81,15.2l-.3-.32-.62-.61-.16-.15L72.57,14l-.64-.59-.65-.57c-.88-.76-1.79-1.49-2.74-2.17s-1.92-1.31-2.92-1.9-2-1.13-3.09-1.63-2.12-1-3.21-1.36A.06.06,0,0,1,59.28,5.68ZM8.89,55.42,4.83,54.18C4.17,52.09-.71,35.89,9.36,20.65,20.36,4,39.49,3.22,41.22,3.18c-2.92.76-18.28,5.1-27.34,20.74A45.25,45.25,0,0,0,8.89,55.42Zm27.4,25A36.91,36.91,0,0,1,17.58,66.84C8.69,54.09,10.05,37,17.5,25,24.07,14.48,36.29,6.44,49.59,6.6A34.26,34.26,0,0,1,63,9.58,40.3,40.3,0,0,1,76.84,31.44C80.4,46.5,73.28,58.92,72,61.1A40.3,40.3,0,0,1,57,75.72,39.05,39.05,0,0,1,36.29,80.4ZM82.61,44C82,57.78,73.86,71.26,61.21,77.57a37.67,37.67,0,0,1-16.9,3.86A42.31,42.31,0,0,0,67.07,69.78a42.17,42.17,0,0,0,8.49-46.95l1.8-.1A40.23,40.23,0,0,1,82.61,44Z"/><g id="_Group_" data-name="&lt;Group&gt;"><path class="cls-1" d="M75.86,37l-4,.74.16.92L76,38Zm-6.39,9.9-1.8,4.16,1,.43,1.14-2.63.86.37-1,2.38.89.38,1-2.37.69.3-1.11,2.56.94.4,1.77-4.08ZM69.38,23l-3.49,3.14.62.69L70,23.71ZM63,60.3l-.62.7,2.89,2.52.61-.71ZM60.82,14.21l-1.28,2.18-.32-3.12L58,12.54l-2.32,3.95,1.24.73,1.27-2.17.32,3.11,1.24.72,2.32-3.94Zm.7,33.06c-1.39-.89-3.31-1.59-4.38-2.39a2.24,2.24,0,0,1-.79-1.2,19.64,19.64,0,0,1-.26-2.39,13.89,13.89,0,0,1,.07-3.22,2.26,2.26,0,0,1,.44-1c.33-.43,1-.44,1.45-1a.38.38,0,0,0-.27-.64c-1.06,0-1.85,0-2.85-.1-.72-.07-1-.86-1.28-1.13-.68-.67-1.13-1.23-1.37-1.12s-.17.2-.14.24a11.19,11.19,0,0,1,1.78,12.42c-2.15,4.33-7.68,7.28-12.5,6a.31.31,0,0,0-.34.14h0a.33.33,0,0,0,.19.48,26.19,26.19,0,0,0,3.41.51,15,15,0,0,0,3-.28h0a.05.05,0,0,1,0,0L50,54.9a.25.25,0,0,0,.41-.23l-.28-1.83a.74.74,0,0,1,0-.33,1,1,0,0,1,.17-.27,28.45,28.45,0,0,1,1.87-2.51,27,27,0,0,1,2.42-2.52.92.92,0,0,1,.83-.28l5.85.87A.29.29,0,0,0,61.52,47.27ZM53.61,67.88l-.87.35,1.41,3.43.86-.35ZM47.69,11.5l-.3,4.7.94.06.3-4.7ZM48,30.55c-1-.19-1.79-.31-2.47-.39A24.54,24.54,0,0,0,42.37,30h0l0,0-2.45-2.14a.25.25,0,0,0-.41.24l.38,1.84a.77.77,0,0,1-.21.61l-4.94,5.31a1,1,0,0,1-.84.32l-6.15-.61a.29.29,0,0,0-.17.54c1.5.84,3.43,1.77,4.57,2.53A2.24,2.24,0,0,1,33,39.81a13.81,13.81,0,0,1,.48,2.09,13,13,0,0,1,.08,3.25,2.29,2.29,0,0,1-.4,1.06c-.33.45-.91,1.08-1.39,1.64a.39.39,0,0,0,.32.64l3-.16a.17.17,0,0,1,.1,0,6.22,6.22,0,0,0,1.22.89,7,7,0,0,0,1.46.75.14.14,0,0,0,.13-.24,11.08,11.08,0,0,1-2.44-12.47A11.25,11.25,0,0,1,47.83,31.2a.33.33,0,0,0,.36-.16h0A.33.33,0,0,0,48,30.55ZM41.41,70.26l-.5,4.21.93.11.5-4.21Zm-5.81-56-.87.32,1.4,3.75L37,18Zm-3.27,55.9a1.92,1.92,0,0,0,.23-1.35,2.45,2.45,0,0,0-1.21-1.4,3,3,0,0,0-1.13-.5,1.64,1.64,0,0,0-1,.1,1.62,1.62,0,0,0-.72.6,1.31,1.31,0,0,0-.25.73,1.49,1.49,0,0,0,.23.82,6.21,6.21,0,0,0,1,1.18,1.15,1.15,0,0,1,.33.45.28.28,0,0,1,0,.24.38.38,0,0,1-.27.16.65.65,0,0,1-.41-.13.7.7,0,0,1-.27-1l-1.28-.74a1.58,1.58,0,0,0-.13,1.29,2.58,2.58,0,0,0,1,1.11,3.32,3.32,0,0,0,1.14.53,1.55,1.55,0,0,0,.87-.08,1.29,1.29,0,0,0,.59-.49,1.23,1.23,0,0,0,.18-1,3.45,3.45,0,0,0-.88-1.32,1.84,1.84,0,0,1-.5-.69.44.44,0,0,1,.05-.39.46.46,0,0,1,.35-.2.71.71,0,0,1,.51.16.81.81,0,0,1,.41.63,1.24,1.24,0,0,1-.14.57Zm-8-47.31-.57.74,3.41,2.67.57-.74ZM21.85,59l-3.12,2.5.59.73,3.12-2.49Zm.06-26.49-4.14-2.31-.4,1.41,2.34,1.21L17,32.9l-.39,1.42,2.27,1.44-2.63-.19L15.88,37l4.74.17L21,35.69l-2.56-1.62,3-.07ZM19.68,48.42l-4.13,1.14.25.9,4.13-1.13Z"/><path class="cls-1" d="M55.42,20.27c-.44.52-.88,1-1.31,1.47-.75.81-1.48,1.53-2.18,2.17l1.4.35-4.87,9.09A3.62,3.62,0,0,1,47.4,34.5a3.44,3.44,0,0,1-1.2.52l-.36,0a5.61,5.61,0,0,0-1.16,0,6.19,6.19,0,0,0-3.3,1.22,6.47,6.47,0,0,0-2.53,4.34,6.59,6.59,0,0,0,1.27,4.66,5.6,5.6,0,0,0,.6.69,1.13,1.13,0,0,1,.44.66c.12,1.12-.66,2.14-1.2,3l-1.53,2.53L36.2,55.78a6.57,6.57,0,0,0-2.65.33,4.67,4.67,0,0,0-2.46,1.66,2.9,2.9,0,0,0-.49,2.53.36.36,0,0,0,.18.16l.39-.12A3.91,3.91,0,0,1,33.45,58a3.69,3.69,0,0,1,3.06.25,3.32,3.32,0,0,1,1.64,2.36,3.38,3.38,0,0,1-.08.93,5.27,5.27,0,0,1-.19.52,2.69,2.69,0,0,0-.13.32c0,.08-.18.57,0,.74s.56,0,.71-.09a1.9,1.9,0,0,0,.79-.69,3.11,3.11,0,0,0,.5-1.34,5,5,0,0,0-.35-2.75,4.91,4.91,0,0,0-1.71-2l.31-.57q1.19-2.13,2.35-4.26c.39-.69.78-1.39,1.16-2.09a3.86,3.86,0,0,1,1.14-1.51,3.82,3.82,0,0,1,1.57-.54c.56-.09,1.12-.21,1.68-.25,1.31-.1,2.72,0,3.83-.81a4.33,4.33,0,0,0,1.83-3.78,11.47,11.47,0,0,0-1.49-4.31c-.39-.73-.35-.61-.44-.81a4.44,4.44,0,0,1-.28-2.08,4,4,0,0,1,.44-1.46q1.17-2.3,2.33-4.59t2.34-4.59l1,1.28c.28-1.43.64-3,1.1-4.6s1-3.23,1.54-4.64A39.75,39.75,0,0,1,55.42,20.27ZM50.15,40.82a3.25,3.25,0,0,1,.37,2.9,2.92,2.92,0,0,1-3.11,2.21l-.25-.07A2.19,2.19,0,0,1,46,45h0a2.72,2.72,0,0,1-.35-.75,3.19,3.19,0,0,1-.13-1.12,3.6,3.6,0,0,1,1.21-2.53,2.59,2.59,0,0,1,1-.54,2.06,2.06,0,0,1,.82-.11A1.91,1.91,0,0,1,49,40,2.15,2.15,0,0,1,50.15,40.82Zm-7.09,1a2.25,2.25,0,0,0,.24.8,2.38,2.38,0,0,0,.48.69l-.05,0-.22-.1-.2-.13-.18-.16a1,1,0,0,1-.17-.18,2.36,2.36,0,0,1-.46-.89,2.64,2.64,0,0,1-.06-1,2.38,2.38,0,0,1,.05-.26,2.58,2.58,0,0,1,.08-.26,3.58,3.58,0,0,1,.24-.48c0-.08.11-.15.16-.22a1.18,1.18,0,0,1,.18-.21l.19-.18.22-.16a2.46,2.46,0,0,1,1-.4,2.29,2.29,0,0,1,1,0,1.44,1.44,0,0,1,.45.17,1.05,1.05,0,0,1,.21.12,1.39,1.39,0,0,1,.19.15l0,.06a2.62,2.62,0,0,0-.83-.13,2.52,2.52,0,0,0-.82.14,2.47,2.47,0,0,0-1.3,1A2.37,2.37,0,0,0,43.06,41.78ZM49.6,38.9l-1.78-.13a3.68,3.68,0,0,0-2.77-1.25A3.78,3.78,0,0,0,44.51,45l.78,1.46h-.24a5.21,5.21,0,0,1,0-10.42A5.11,5.11,0,0,1,49.6,38.9Z"/></g><path class="cls-1" d="M48.19,31h0a.33.33,0,0,1-.36.16,11.25,11.25,0,0,0-12.35,6.09,11.08,11.08,0,0,0,2.44,12.47.14.14,0,0,1-.13.24,7,7,0,0,1-1.46-.75,6.22,6.22,0,0,1-1.22-.89.17.17,0,0,0-.1,0l-3,.16a.39.39,0,0,1-.32-.64c.48-.56,1.06-1.19,1.39-1.64a2.29,2.29,0,0,0,.4-1.06,13,13,0,0,0-.08-3.25A13.81,13.81,0,0,0,33,39.81a2.24,2.24,0,0,0-.89-1.18c-1.14-.76-3.07-1.69-4.57-2.53a.29.29,0,0,1,.17-.54l6.15.61a1,1,0,0,0,.84-.32l4.94-5.31a.77.77,0,0,0,.21-.61l-.38-1.84a.25.25,0,0,1,.41-.24L42.28,30l0,0h0a24.54,24.54,0,0,1,3.13.14c.68.08,1.51.2,2.47.39A.33.33,0,0,1,48.19,31Z"/><path class="cls-1" d="M61.33,47.8l-5.85-.87a.92.92,0,0,0-.83.28,27,27,0,0,0-2.42,2.52,28.45,28.45,0,0,0-1.87,2.51,1,1,0,0,0-.17.27.74.74,0,0,0,0,.33l.28,1.83a.25.25,0,0,1-.41.23l-2.25-2.23a.05.05,0,0,0,0,0h0a15,15,0,0,1-3,.28,26.19,26.19,0,0,1-3.41-.51.33.33,0,0,1-.19-.48h0a.31.31,0,0,1,.34-.14c4.82,1.25,10.35-1.7,12.5-6a11.19,11.19,0,0,0-1.78-12.42s0-.19.14-.24.69.45,1.37,1.12c.28.27.56,1.06,1.28,1.13,1,.09,1.79.09,2.85.1a.38.38,0,0,1,.27.64c-.48.53-1.12.54-1.45,1a2.26,2.26,0,0,0-.44,1,13.89,13.89,0,0,0-.07,3.22,19.64,19.64,0,0,0,.26,2.39,2.24,2.24,0,0,0,.79,1.2c1.07.8,3,1.5,4.38,2.39A.29.29,0,0,1,61.33,47.8Z"/><path class="cls-1" d="M69.47,46.93l-1.8,4.16,1,.43,1.14-2.63.86.37-1,2.38.89.38,1-2.37.69.3-1.11,2.56.94.4,1.77-4.08Z"/><path class="cls-1" d="M32.33,70.15a1.92,1.92,0,0,0,.23-1.35,2.45,2.45,0,0,0-1.21-1.4,3,3,0,0,0-1.13-.5,1.64,1.64,0,0,0-1,.1,1.62,1.62,0,0,0-.72.6,1.31,1.31,0,0,0-.25.73,1.49,1.49,0,0,0,.23.82,6.21,6.21,0,0,0,1,1.18,1.15,1.15,0,0,1,.33.45.28.28,0,0,1,0,.24.38.38,0,0,1-.27.16.65.65,0,0,1-.41-.13.7.7,0,0,1-.27-1l-1.28-.74a1.58,1.58,0,0,0-.13,1.29,2.58,2.58,0,0,0,1,1.11,3.32,3.32,0,0,0,1.14.53,1.55,1.55,0,0,0,.87-.08,1.29,1.29,0,0,0,.59-.49,1.23,1.23,0,0,0,.18-1,3.45,3.45,0,0,0-.88-1.32,1.84,1.84,0,0,1-.5-.69.44.44,0,0,1,.05-.39.46.46,0,0,1,.35-.2.71.71,0,0,1,.51.16.81.81,0,0,1,.41.63,1.24,1.24,0,0,1-.14.57Z"/><path class="cls-1" d="M21.91,32.54l-4.14-2.31-.4,1.41,2.34,1.21L17,32.9l-.39,1.42,2.27,1.44-2.63-.19L15.88,37l4.74.17L21,35.69l-2.56-1.62,3-.07Z"/><path class="cls-1" d="M60.82,14.21l-1.28,2.18-.32-3.12L58,12.54l-2.32,3.95,1.24.73,1.27-2.17.32,3.11,1.24.72,2.32-3.94Z"/><rect class="cls-1" x="45.65" y="13.41" width="4.71" height="0.94" transform="translate(31.11 60.91) rotate(-86.36)"/><rect class="cls-1" x="35.4" y="14.28" width="0.94" height="4" transform="translate(-3.43 13.64) rotate(-20.57)"/><rect class="cls-1" x="25.29" y="22.38" width="0.94" height="4.33" transform="translate(-9.45 29.67) rotate(-51.9)"/><rect class="cls-1" x="15.6" y="48.97" width="4.29" height="0.94" transform="translate(-12.46 6.47) rotate(-15.36)"/><rect class="cls-1" x="18.59" y="60.18" width="4" height="0.94" transform="translate(-33.37 26.14) rotate(-38.65)"/><rect class="cls-1" x="39.5" y="71.95" width="4.24" height="0.94" transform="translate(-35.18 105.28) rotate(-83.27)"/><rect class="cls-1" x="53.41" y="67.92" width="0.94" height="3.71" transform="translate(-22.41 25.6) rotate(-22.25)"/><rect class="cls-1" x="63.66" y="59.99" width="0.94" height="3.83" transform="translate(-24.68 69.52) rotate(-48.89)"/><rect class="cls-1" x="65.6" y="24.46" width="4.69" height="0.94" transform="translate(0.76 51.83) rotate(-41.97)"/><rect class="cls-1" x="71.86" y="37.39" width="4.12" height="0.94" transform="matrix(0.98, -0.18, 0.18, 0.98, -5.58, 13.84)"/></g></g></svg>